<?xml version="1.0" encoding="UTF-8" standalone="no"?>
<svg
   viewBox="0 0 512 512"
   version="1.1"
   id="svg650"
   sodipodi:docname="arrow-down-clock.svg"
   inkscape:version="1.2.1 (9c6d41e410, 2022-07-14)"
   xmlns:inkscape="http://www.inkscape.org/namespaces/inkscape"
   xmlns:sodipodi="http://sodipodi.sourceforge.net/DTD/sodipodi-0.dtd"
   xmlns="http://www.w3.org/2000/svg"
   xmlns:svg="http://www.w3.org/2000/svg">
  <defs
     id="defs654" />
  <sodipodi:namedview
     id="namedview652"
     pagecolor="#ffffff"
     bordercolor="#000000"
     borderopacity="0.25"
     inkscape:showpageshadow="2"
     inkscape:pageopacity="0.0"
     inkscape:pagecheckerboard="0"
     inkscape:deskcolor="#d1d1d1"
     showgrid="false"
     inkscape:zoom="1.7128906"
     inkscape:cx="353.2041"
     inkscape:cy="263.88141"
     inkscape:window-width="1350"
     inkscape:window-height="1041"
     inkscape:window-x="207"
     inkscape:window-y="19"
     inkscape:window-maximized="0"
     inkscape:current-layer="svg650" />
  <!--! Font Awesome Pro 6.1.1 by @fontawesome - https://fontawesome.com License - https://fontawesome.com/license (Commercial License) Copyright 2022 Fonticons, Inc. -->
  <path
     id="path648"
     d="M 128,32 C 110.33002,32 96,46.329315 96,64.029297 V 366.0293 L 63.599609,330.64062 C 51.639621,317.70064 31.390846,316.69923 18.380859,328.69922 5.3508724,340.64921 4.4791682,360.92072 16.410156,373.9707 l 87.101564,96.08985 c 12.11999,13.25998 35.05946,13.25998 47.18945,0 l 88.89844,-96.96094 c 11.93999,-13.04999 11.06024,-33.30954 -1.96875,-45.26953 -13.54999,-12.41999 -33.76072,-10.52033 -45.2207,1.97265 L 160,366.09961 V 64.029297 C 160,46.329315 145.66998,32 128,32 Z"
     sodipodi:nodetypes="ssccccccccccss" />
  <path
     id="path827"
     style="fill:#808080;stroke-width:0.583808"
     d="M 129.25,32.441406 C 115.09835,31.819154 102.444,40.689511 97.419922,55.46875 96.76437,57.397175 96.57709,84.349056 96.332031,212.18164 L 96.037109,366.56836 80.359375,349.37695 c -18.603703,-20.39893 -21.003963,-22.70202 -26.357422,-25.3125 -5.465924,-2.66532 -9.534131,-3.47163 -15.830078,-3.13476 -6.357953,0.34018 -10.807335,1.85363 -16.132813,5.48437 -9.444385,6.43891 -14.9793258,18.5834 -13.414062,29.43164 0.7391124,5.12251 2.372394,9.78702 4.707031,13.44141 0.913087,1.42925 22.163866,25.21103 47.222657,52.84766 30.982673,34.16989 46.472722,50.83293 48.410152,52.07617 3.36396,2.15866 6.14698,3.37269 10.30274,4.49218 9.22966,2.48636 21.63266,-0.3638 28.5625,-6.56445 4.27962,-3.82929 92.70736,-100.57474 94.76758,-103.68164 3.49031,-5.26353 4.54911,-9.11325 4.59961,-16.71289 0.0371,-5.57297 -0.1834,-7.3758 -1.30079,-10.60937 -1.73863,-5.0314 -6.131,-11.25637 -10.10742,-14.32227 -10.93517,-8.43123 -24.40293,-9.28772 -36.30859,-2.31055 -3.66323,2.1468 -5.99876,4.55622 -23.75391,24.49805 l -15.4707,17.37695 -0.29297,-153.70703 -0.29101,-153.705076 -1.62891,-4.607422 c -3.8096,-10.77376 -12.23015,-18.599495 -22.6543,-21.056641 -2.06489,-0.486729 -4.11701,-0.770482 -6.13867,-0.859375 z" />
  <path
     style="fill:#808080;stroke-width:0.255267"
     d="m 359.59484,354.75665 c -27.82803,-1.93407 -52.26623,-12.59711 -71.72758,-31.29664 -15.00662,-14.41917 -25.53434,-32.3883 -30.71215,-52.42072 -2.63677,-10.20135 -3.70428,-20.61177 -3.28591,-32.04433 0.55193,-15.08193 4.40428,-30.1532 11.21278,-43.86688 2.63377,-5.30494 3.87846,-7.44854 7.35731,-12.67073 8.15177,-12.23682 19.06775,-23.07851 31.44583,-31.23184 26.63399,-17.54356 59.54264,-23.00766 90.62456,-15.04716 29.06365,7.4436 54.4277,26.70748 69.4341,52.73489 6.04463,10.48392 10.73086,23.29049 12.82312,35.0431 1.417,7.95955 1.5478,9.63273 1.5478,19.79768 0,10.16495 -0.1308,11.83813 -1.5478,19.79769 -3.80273,21.36059 -14.44827,41.79146 -30.00543,57.58625 -19.58608,19.88523 -44.77038,31.44566 -73.04666,33.53085 -3.16294,0.23325 -11.29949,0.28387 -14.11997,0.0878 z m 51.48142,-73.06971 c 2.99498,-0.77126 5.08077,-2.60692 6.7481,-5.93888 0.90062,-1.79978 0.946,-2.01284 0.946,-4.44179 0,-2.25878 -0.0817,-2.72392 -0.71297,-4.05649 -1.424,-3.00626 -1.33,-2.93572 -21.91388,-16.44363 l -19.33714,-12.68976 -0.0696,-28.08334 -0.0696,-28.08333 -0.81977,-1.71092 c -2.05232,-4.28337 -6.68092,-6.66138 -11.65644,-5.98864 -4.30652,0.58227 -8.2624,4.36499 -8.92976,8.53889 -0.22726,1.42128 0.10225,60.20421 0.35026,62.48561 0.18513,1.703 1.04784,3.63099 2.21065,4.94033 0.77332,0.87078 43.7782,29.48113 46.20162,30.73708 2.09333,1.08487 4.65629,1.35194 7.05253,0.73487 z"
     id="path965" />
</svg>
