<?xml version="1.0" encoding="UTF-8" standalone="no"?>
<svg
   viewBox="0 0 512 512"
   version="1.1"
   id="svg443"
   sodipodi:docname="arrow-up-user.svg"
   inkscape:version="1.2.1 (9c6d41e410, 2022-07-14)"
   xmlns:inkscape="http://www.inkscape.org/namespaces/inkscape"
   xmlns:sodipodi="http://sodipodi.sourceforge.net/DTD/sodipodi-0.dtd"
   xmlns="http://www.w3.org/2000/svg"
   xmlns:svg="http://www.w3.org/2000/svg">
  <defs
     id="defs447" />
  <sodipodi:namedview
     id="namedview445"
     pagecolor="#ffffff"
     bordercolor="#000000"
     borderopacity="0.25"
     inkscape:showpageshadow="2"
     inkscape:pageopacity="0.0"
     inkscape:pagecheckerboard="0"
     inkscape:deskcolor="#d1d1d1"
     showgrid="false"
     inkscape:zoom="1.7128906"
     inkscape:cx="256.2919"
     inkscape:cy="349.70125"
     inkscape:window-width="1350"
     inkscape:window-height="1041"
     inkscape:window-x="27"
     inkscape:window-y="78"
     inkscape:window-maximized="0"
     inkscape:current-layer="svg443" />
  <!--! Font Awesome Pro 6.1.1 by @fontawesome - https://fontawesome.com License - https://fontawesome.com/license (Commercial License) Copyright 2022 Fonticons, Inc. -->
  <path
     d="m 151.6,41.95 c -12.12,-13.26 -35.06,-13.26 -47.19,0 l -87.1,96.09 C 4.473,151.1 5.348,171.4 18.38,183.3 31.4,195.25 51.65,194.34 63.6,181.327 L 96,145.9 v 302 c 0,17.8 14.3,32.1 32,32.1 17.7,0 32,-14.3 32,-32.9 V 145.9 l 32.4,35.4 c 6.312,6.883 14.94,10.39 23.61,10.39 7.719,0 15.47,-2.785 21.61,-8.414 13.03,-11.95 13.9,-32.22 1.969,-45.27 z"
     id="path441"
     sodipodi:nodetypes="ccccccsssccsccc" />
  <path
     style="fill:#808080;stroke-width:0.583808"
     d="m 120.436,478.70299 c -4.65317,-1.2535 -6.98409,-2.36695 -11.09275,-5.29882 -5.38066,-3.83956 -8.98903,-8.92129 -11.768713,-16.57407 -0.871264,-2.3987 -0.979625,-16.05426 -1.246145,-157.04447 L 96.036488,145.3683 78.650322,164.35882 c -18.289103,19.9768 -21.283377,22.65846 -28.150892,25.21184 -2.860214,1.06344 -4.734572,1.30535 -10.216648,1.31854 -8.176349,0.0197 -11.815347,-1.01426 -17.905084,-5.08732 C 11.681478,178.64781 6.4415004,165.58627 9.3185454,153.24971 11.136969,145.45245 11.516165,144.98737 57.11992,94.62098 80.691136,68.588107 101.97118,45.255106 104.40891,42.769866 c 7.4974,-7.643506 15.31418,-10.76802 25.48847,-10.188211 6.17691,0.352008 11.07899,1.900953 15.89289,5.021785 2.55599,1.657045 14.47125,14.307375 49.20175,52.237087 25.20593,27.527783 46.68559,51.406543 47.73258,53.063903 3.12163,4.94145 4.34178,8.87844 4.65368,15.01575 0.48984,9.63846 -2.3783,17.13954 -9.16885,23.97941 -4.29335,4.32453 -10.16257,7.60855 -15.62512,8.74275 -4.70735,0.97741 -13.05797,0.41971 -17.16887,-1.14663 -6.96951,-2.65551 -9.48142,-4.90544 -27.71098,-24.82064 l -17.44904,-19.06253 -0.30607,153.4195 c -0.29116,145.94483 -0.35761,153.59016 -1.36409,156.92235 -2.51976,8.34229 -8.85819,16.31662 -15.89843,20.00169 -6.58979,3.44929 -15.5413,4.55437 -22.25083,2.74691 z"
     id="path635" />
  <path
     d="m 351.56215,346.1544 c 40.75701,0 73.78922,-28.5553 73.78922,-63.77732 0,-35.22202 -33.03221,-63.77731 -73.78922,-63.77731 -40.75702,0 -73.78922,28.55529 -73.78922,63.77731 0,35.22202 33.0322,63.77732 73.78922,63.77732 z m 29.22745,23.91649 h -58.4549 c -55.16321,0 -99.90368,38.665 -99.90368,86.34851 0,9.5367 8.94694,17.27468 19.98073,17.27468 h 218.31232 c 11.03379,0.0149 19.96921,-7.70809 19.96921,-17.27468 0,-47.68351 -44.73471,-86.34851 -99.90368,-86.34851 z"
     id="path1350"
     style="stroke-width:0.535944" />
  <path
     style="fill:#808080;stroke-width:0.312889"
     d="m 347.29213,345.82154 c -22.87388,-1.01905 -44.06821,-11.55675 -57.08289,-28.3813 -2.78152,-3.59576 -6.80655,-10.6487 -8.35375,-14.63801 -13.97561,-36.03481 11.30016,-74.5222 54.24841,-82.60397 27.83185,-5.23724 57.04473,4.20545 74.29391,24.01456 7.61753,8.74803 12.73483,19.83169 14.29285,30.95714 0.50666,3.61797 0.42067,11.40075 -0.16946,15.3371 -4.6246,30.84766 -34.4396,54.28688 -70.49801,55.4224 -1.38828,0.0437 -4.41726,-0.005 -6.73106,-0.10792 z"
     id="path1475" />
  <path
     style="fill:#808080;stroke-width:0.312889"
     d="m 238.249,473.10977 c -7.0549,-1.31435 -13.15898,-6.40323 -14.98255,-12.49073 -0.67343,-2.24804 -0.67679,-8.87015 -0.007,-13.81885 2.27984,-16.84497 9.84764,-32.24521 22.22711,-45.23152 3.52242,-3.69509 11.16618,-10.14852 15.3115,-12.92711 15.47148,-10.37047 33.46044,-16.55654 52.50225,-18.05458 2.9432,-0.23154 15.22648,-0.29874 40.89118,-0.22369 36.13176,0.10565 36.75475,0.11712 41.36463,0.76196 16.80291,2.35046 31.616,7.73366 44.91756,16.32342 21.65423,13.98367 35.93871,35.17853 39.24509,58.23062 0.85471,5.95905 1.00568,11.39108 0.38616,13.89428 -1.72472,6.96881 -7.55106,12.11847 -15.35582,13.57239 -3.27527,0.61014 -223.21951,0.575 -226.50009,-0.0362 z"
     id="path1477" />
</svg>
