<?xml version="1.0" encoding="UTF-8" standalone="no"?>
<svg
   viewBox="0 0 512 512"
   version="1.1"
   id="svg443"
   sodipodi:docname="arrow-up-clock.svg"
   inkscape:version="1.2.1 (9c6d41e410, 2022-07-14)"
   xmlns:inkscape="http://www.inkscape.org/namespaces/inkscape"
   xmlns:sodipodi="http://sodipodi.sourceforge.net/DTD/sodipodi-0.dtd"
   xmlns="http://www.w3.org/2000/svg"
   xmlns:svg="http://www.w3.org/2000/svg">
  <defs
     id="defs447" />
  <sodipodi:namedview
     id="namedview445"
     pagecolor="#ffffff"
     bordercolor="#000000"
     borderopacity="0.25"
     inkscape:showpageshadow="2"
     inkscape:pageopacity="0.0"
     inkscape:pagecheckerboard="0"
     inkscape:deskcolor="#d1d1d1"
     showgrid="false"
     inkscape:zoom="1.7128906"
     inkscape:cx="256.2919"
     inkscape:cy="256.2919"
     inkscape:window-width="1350"
     inkscape:window-height="1041"
     inkscape:window-x="145"
     inkscape:window-y="57"
     inkscape:window-maximized="0"
     inkscape:current-layer="svg443" />
  <!--! Font Awesome Pro 6.1.1 by @fontawesome - https://fontawesome.com License - https://fontawesome.com/license (Commercial License) Copyright 2022 Fonticons, Inc. -->
  <path
     d="m 151.6,41.95 c -12.12,-13.26 -35.06,-13.26 -47.19,0 l -87.1,96.09 C 4.473,151.1 5.348,171.4 18.38,183.3 31.4,195.25 51.65,194.34 63.6,181.327 L 96,145.9 v 302 c 0,17.8 14.3,32.1 32,32.1 17.7,0 32,-14.3 32,-32.9 V 145.9 l 32.4,35.4 c 6.312,6.883 14.94,10.39 23.61,10.39 7.719,0 15.47,-2.785 21.61,-8.414 13.03,-11.95 13.9,-32.22 1.969,-45.27 z"
     id="path441"
     sodipodi:nodetypes="ccccccsssccsccc" />
  <path
     style="fill:#808080;stroke-width:0.583808"
     d="m 120.436,478.70299 c -4.65317,-1.2535 -6.98409,-2.36695 -11.09275,-5.29882 -5.38066,-3.83956 -8.98903,-8.92129 -11.768713,-16.57407 -0.871264,-2.3987 -0.979625,-16.05426 -1.246145,-157.04447 L 96.036488,145.3683 78.650322,164.35882 c -18.289103,19.9768 -21.283377,22.65846 -28.150892,25.21184 -2.860214,1.06344 -4.734572,1.30535 -10.216648,1.31854 -8.176349,0.0197 -11.815347,-1.01426 -17.905084,-5.08732 C 11.681478,178.64781 6.4415004,165.58627 9.3185454,153.24971 11.136969,145.45245 11.516165,144.98737 57.11992,94.62098 80.691136,68.588107 101.97118,45.255106 104.40891,42.769866 c 7.4974,-7.643506 15.31418,-10.76802 25.48847,-10.188211 6.17691,0.352008 11.07899,1.900953 15.89289,5.021785 2.55599,1.657045 14.47125,14.307375 49.20175,52.237087 25.20593,27.527783 46.68559,51.406543 47.73258,53.063903 3.12163,4.94145 4.34178,8.87844 4.65368,15.01575 0.48984,9.63846 -2.3783,17.13954 -9.16885,23.97941 -4.29335,4.32453 -10.16257,7.60855 -15.62512,8.74275 -4.70735,0.97741 -13.05797,0.41971 -17.16887,-1.14663 -6.96951,-2.65551 -9.48142,-4.90544 -27.71098,-24.82064 l -17.44904,-19.06253 -0.30607,153.4195 c -0.29116,145.94483 -0.35761,153.59016 -1.36409,156.92235 -2.51976,8.34229 -8.85819,16.31662 -15.89843,20.00169 -6.58979,3.44929 -15.5413,4.55437 -22.25083,2.74691 z"
     id="path635" />
  <path
     style="fill:#808080;stroke-width:0.255267"
     d="m 357.25961,386.57421 c -27.82803,-1.93407 -52.26623,-12.59711 -71.72758,-31.29664 -15.00662,-14.41917 -25.53434,-32.3883 -30.71215,-52.42072 -2.63677,-10.20135 -3.70428,-20.61177 -3.28591,-32.04433 0.55193,-15.08193 4.40428,-30.1532 11.21278,-43.86688 2.63377,-5.30494 3.87846,-7.44854 7.35731,-12.67073 8.15177,-12.23682 19.06775,-23.07851 31.44583,-31.23184 26.63399,-17.54356 59.54264,-23.00766 90.62456,-15.04716 29.06365,7.4436 54.4277,26.70748 69.4341,52.73489 6.04463,10.48392 10.73086,23.29049 12.82312,35.0431 1.417,7.95955 1.5478,9.63273 1.5478,19.79768 0,10.16495 -0.1308,11.83813 -1.5478,19.79769 -3.80273,21.36059 -14.44827,41.79146 -30.00543,57.58625 -19.58608,19.88523 -44.77038,31.44566 -73.04666,33.53085 -3.16294,0.23325 -11.29949,0.28387 -14.11997,0.0878 z m 51.48142,-73.06971 c 2.99498,-0.77126 5.08077,-2.60692 6.7481,-5.93888 0.90062,-1.79978 0.946,-2.01284 0.946,-4.44179 0,-2.25878 -0.0817,-2.72392 -0.71297,-4.05649 -1.424,-3.00626 -1.33,-2.93572 -21.91388,-16.44363 l -19.33714,-12.68976 -0.0696,-28.08334 -0.0696,-28.08333 -0.81977,-1.71092 c -2.05232,-4.28337 -6.68092,-6.66138 -11.65644,-5.98864 -4.30652,0.58227 -8.2624,4.36499 -8.92976,8.53889 -0.22726,1.42128 0.10225,60.20421 0.35026,62.48561 0.18513,1.703 1.04784,3.63099 2.21065,4.94033 0.77332,0.87078 43.7782,29.48113 46.20162,30.73708 2.09333,1.08487 4.65629,1.35194 7.05253,0.73487 z"
     id="path965" />
</svg>
