<?xml version="1.0" encoding="UTF-8" standalone="no"?>
<svg
   viewBox="0 0 512 512"
   version="1.1"
   id="svg443"
   sodipodi:docname="arrow-up-z-a.svg"
   inkscape:version="1.2.1 (9c6d41e410, 2022-07-14)"
   xmlns:inkscape="http://www.inkscape.org/namespaces/inkscape"
   xmlns:sodipodi="http://sodipodi.sourceforge.net/DTD/sodipodi-0.dtd"
   xmlns="http://www.w3.org/2000/svg"
   xmlns:svg="http://www.w3.org/2000/svg">
  <defs
     id="defs447" />
  <sodipodi:namedview
     id="namedview445"
     pagecolor="#ffffff"
     bordercolor="#000000"
     borderopacity="0.25"
     inkscape:showpageshadow="2"
     inkscape:pageopacity="0.0"
     inkscape:pagecheckerboard="0"
     inkscape:deskcolor="#d1d1d1"
     showgrid="false"
     inkscape:zoom="1.7128906"
     inkscape:cx="255.7081"
     inkscape:cy="256.2919"
     inkscape:window-width="1920"
     inkscape:window-height="1057"
     inkscape:window-x="-8"
     inkscape:window-y="-8"
     inkscape:window-maximized="1"
     inkscape:current-layer="svg443" />
  <!--! Font Awesome Pro 6.1.1 by @fontawesome - https://fontawesome.com License - https://fontawesome.com/license (Commercial License) Copyright 2022 Fonticons, Inc. -->
  <path
     d="M151.6 41.95c-12.12-13.26-35.06-13.26-47.19 0l-87.1 96.09C4.473 151.1 5.348 171.4 18.38 183.3c13.02 11.95 33.27 11.04 45.22-1.973L96 145.9v302C96 465.7 110.3 480 128 480S160 465.7 160 447.1V145.9L192.4 181.3c6.312 6.883 14.94 10.39 23.61 10.39c7.719 0 15.47-2.785 21.61-8.414c13.03-11.95 13.9-32.22 1.969-45.27L151.6 41.95zM320 96h50.75l-73.38 73.38c-9.156 9.156-11.89 22.91-6.938 34.88s16.63 19.74 29.56 19.74h127.1C465.7 223.1 480 209.7 480 192s-14.33-32-32-32h-50.75l73.38-73.38c9.156-9.156 11.89-22.91 6.938-34.88S460.9 32 447.1 32h-127.1C302.3 32 288 46.31 288 64S302.3 96 320 96zM492.6 433.3l-79.99-160.1c-10.84-21.81-46.4-21.81-57.24 0l-79.99 160.1c-7.906 15.91-1.5 35.24 14.31 43.19c15.87 7.922 35.04 1.477 42.93-14.4l7.154-14.39h88.43l7.154 14.39c6.174 12.43 23.97 23.87 42.93 14.4C494.1 468.6 500.5 449.2 492.6 433.3zM367.8 391.4L384 358.7l16.22 32.63H367.8z"
     id="path441" />
  <path
     style="fill:#808080;stroke-width:0.583808"
     d="m 120.436,478.70299 c -4.65317,-1.2535 -6.98409,-2.36695 -11.09275,-5.29882 -5.38066,-3.83956 -8.98903,-8.92129 -11.768713,-16.57407 -0.871264,-2.3987 -0.979625,-16.05426 -1.246145,-157.04447 L 96.036488,145.3683 78.650322,164.35882 c -18.289103,19.9768 -21.283377,22.65846 -28.150892,25.21184 -2.860214,1.06344 -4.734572,1.30535 -10.216648,1.31854 -8.176349,0.0197 -11.815347,-1.01426 -17.905084,-5.08732 C 11.681478,178.64781 6.4415004,165.58627 9.3185454,153.24971 11.136969,145.45245 11.516165,144.98737 57.11992,94.62098 80.691136,68.588107 101.97118,45.255106 104.40891,42.769866 c 7.4974,-7.643506 15.31418,-10.76802 25.48847,-10.188211 6.17691,0.352008 11.07899,1.900953 15.89289,5.021785 2.55599,1.657045 14.47125,14.307375 49.20175,52.237087 25.20593,27.527783 46.68559,51.406543 47.73258,53.063903 3.12163,4.94145 4.34178,8.87844 4.65368,15.01575 0.48984,9.63846 -2.3783,17.13954 -9.16885,23.97941 -4.29335,4.32453 -10.16257,7.60855 -15.62512,8.74275 -4.70735,0.97741 -13.05797,0.41971 -17.16887,-1.14663 -6.96951,-2.65551 -9.48142,-4.90544 -27.71098,-24.82064 l -17.44904,-19.06253 -0.30607,153.4195 c -0.29116,145.94483 -0.35761,153.59016 -1.36409,156.92235 -2.51976,8.34229 -8.85819,16.31662 -15.89843,20.00169 -6.58979,3.44929 -15.5413,4.55437 -22.25083,2.74691 z"
     id="path635" />
  <path
     style="fill:#808080;stroke-width:0.583808"
     d="m 315.11842,223.29586 c -7.13731,-1.22319 -13.18879,-4.5296 -18.34192,-10.02166 -9.76287,-10.40497 -11.08575,-25.96263 -3.26719,-38.42357 1.27864,-2.03785 15.75056,-16.97194 39.61187,-40.87689 20.67845,-20.71627 37.59718,-37.858344 37.59718,-38.093502 0,-0.235159 -12.67594,-0.434342 -28.16876,-0.442632 -27.60748,-0.01477 -28.24504,-0.0411 -31.99726,-1.32026 -13.37854,-4.560917 -22.15097,-16.517174 -22.15097,-30.190322 0,-14.52115 10.89299,-27.987219 24.98654,-30.888733 2.13011,-0.438536 24.14037,-0.636923 70.66412,-0.636923 58.57554,0 68.03358,0.118254 71.04994,0.888334 11.0726,2.826845 19.96029,11.098167 23.17098,21.564049 1.59308,5.192959 1.68186,12.551992 0.21159,17.538495 -2.47367,8.389625 -1.91611,7.754819 -43.20121,49.185864 l -38.54106,38.67731 h 27.17744 c 25.16638,0 27.51157,0.0855 31.6929,1.15486 6.2283,1.59293 9.86573,3.69862 14.64509,8.47798 6.46943,6.46943 9.2307,13.12666 9.20172,22.18472 -0.0462,14.43009 -9.19811,25.8365 -24.42134,30.43725 -3.23229,0.97685 -7.90215,1.05344 -70.30832,1.15295 -36.76534,0.0586 -68.09044,-0.10666 -69.61134,-0.36732 z"
     id="path637" />
  <path
     style="fill:#808080;stroke-width:0.583808"
     d="m 296.92563,478.66808 c -11.19492,-2.70878 -20.15868,-11.39091 -23.45044,-22.71369 -1.55998,-5.3659 -1.35084,-12.39225 0.53405,-17.9419 0.84328,-2.48286 19.93554,-41.31263 42.42725,-86.28837 40.62689,-81.23992 40.91772,-81.79772 44.52295,-85.39262 7.90088,-7.87825 20.02395,-10.97015 31.50237,-8.03447 6.32523,1.61772 10.10577,3.74383 14.53764,8.17571 l 3.88689,3.88688 41.43002,82.88237 c 43.72476,87.47307 43.337,86.62772 43.337,94.47964 0,17.04259 -14.72096,31.877 -31.63322,31.877 -7.92383,0 -16.3214,-3.65005 -22.41351,-9.74216 -3.09045,-3.09044 -4.41895,-5.1497 -8.3992,-13.0192 l -4.7281,-9.3481 h -44.51291 -44.51291 l -4.36301,8.88514 c -3.89248,7.9269 -4.83524,9.36532 -8.74158,13.33759 -8.20473,8.34318 -18.72376,11.54507 -29.42329,8.95618 z m 103.56696,-87.51366 c 0,-0.80387 -16.11364,-32.40413 -16.52355,-32.40413 -0.45162,0 -16.1457,31.32145 -16.16206,32.25541 -0.004,0.24082 7.34832,0.43786 16.33897,0.43786 8.99065,0 16.34664,-0.13012 16.34664,-0.28914 z"
     id="path639" />
</svg>
