<?xml version="1.0" encoding="UTF-8" standalone="no"?>
<svg
   viewBox="0 0 512 512"
   version="1.1"
   id="svg650"
   sodipodi:docname="arrow-down-user.svg"
   inkscape:version="1.2.1 (9c6d41e410, 2022-07-14)"
   xmlns:inkscape="http://www.inkscape.org/namespaces/inkscape"
   xmlns:sodipodi="http://sodipodi.sourceforge.net/DTD/sodipodi-0.dtd"
   xmlns="http://www.w3.org/2000/svg"
   xmlns:svg="http://www.w3.org/2000/svg">
  <defs
     id="defs654" />
  <sodipodi:namedview
     id="namedview652"
     pagecolor="#ffffff"
     bordercolor="#000000"
     borderopacity="0.25"
     inkscape:showpageshadow="2"
     inkscape:pageopacity="0.0"
     inkscape:pagecheckerboard="0"
     inkscape:deskcolor="#d1d1d1"
     showgrid="false"
     inkscape:zoom="1.7128906"
     inkscape:cx="353.2041"
     inkscape:cy="263.88141"
     inkscape:window-width="1350"
     inkscape:window-height="1041"
     inkscape:window-x="627"
     inkscape:window-y="270"
     inkscape:window-maximized="0"
     inkscape:current-layer="svg650" />
  <!--! Font Awesome Pro 6.1.1 by @fontawesome - https://fontawesome.com License - https://fontawesome.com/license (Commercial License) Copyright 2022 Fonticons, Inc. -->
  <path
     id="path648"
     d="M 128,32 C 110.33002,32 96,46.329315 96,64.029297 V 366.0293 L 63.599609,330.64062 C 51.639621,317.70064 31.390846,316.69923 18.380859,328.69922 5.3508724,340.64921 4.4791682,360.92072 16.410156,373.9707 l 87.101564,96.08985 c 12.11999,13.25998 35.05946,13.25998 47.18945,0 l 88.89844,-96.96094 c 11.93999,-13.04999 11.06024,-33.30954 -1.96875,-45.26953 -13.54999,-12.41999 -33.76072,-10.52033 -45.2207,1.97265 L 160,366.09961 V 64.029297 C 160,46.329315 145.66998,32 128,32 Z"
     sodipodi:nodetypes="ssccccccccccss" />
  <path
     id="path827"
     style="fill:#808080;stroke-width:0.583808"
     d="M 129.25,32.441406 C 115.09835,31.819154 102.444,40.689511 97.419922,55.46875 96.76437,57.397175 96.57709,84.349056 96.332031,212.18164 L 96.037109,366.56836 80.359375,349.37695 c -18.603703,-20.39893 -21.003963,-22.70202 -26.357422,-25.3125 -5.465924,-2.66532 -9.534131,-3.47163 -15.830078,-3.13476 -6.357953,0.34018 -10.807335,1.85363 -16.132813,5.48437 -9.444385,6.43891 -14.9793258,18.5834 -13.414062,29.43164 0.7391124,5.12251 2.372394,9.78702 4.707031,13.44141 0.913087,1.42925 22.163866,25.21103 47.222657,52.84766 30.982673,34.16989 46.472722,50.83293 48.410152,52.07617 3.36396,2.15866 6.14698,3.37269 10.30274,4.49218 9.22966,2.48636 21.63266,-0.3638 28.5625,-6.56445 4.27962,-3.82929 92.70736,-100.57474 94.76758,-103.68164 3.49031,-5.26353 4.54911,-9.11325 4.59961,-16.71289 0.0371,-5.57297 -0.1834,-7.3758 -1.30079,-10.60937 -1.73863,-5.0314 -6.131,-11.25637 -10.10742,-14.32227 -10.93517,-8.43123 -24.40293,-9.28772 -36.30859,-2.31055 -3.66323,2.1468 -5.99876,4.55622 -23.75391,24.49805 l -15.4707,17.37695 -0.29297,-153.70703 -0.29101,-153.705076 -1.62891,-4.607422 c -3.8096,-10.77376 -12.23015,-18.599495 -22.6543,-21.056641 -2.06489,-0.486729 -4.11701,-0.770482 -6.13867,-0.859375 z" />
  <path
     d="m 353.31358,159.08028 c 40.75701,0 73.78922,-28.5553 73.78922,-63.777316 0,-35.22202 -33.03221,-63.77731 -73.78922,-63.77731 -40.75702,0 -73.78922,28.55529 -73.78922,63.77731 0,35.222016 33.0322,63.777316 73.78922,63.777316 z m 29.22745,23.91649 h -58.4549 c -55.16321,0 -99.90368,38.665 -99.90368,86.34851 0,9.5367 8.94694,17.27468 19.98073,17.27468 H 462.4755 c 11.03379,0.0149 19.96921,-7.70809 19.96921,-17.27468 0,-47.68351 -44.73471,-86.34851 -99.90368,-86.34851 z"
     id="path1350"
     style="stroke-width:0.535944" />
  <path
     style="fill:#808080;stroke-width:0.312889"
     d="m 349.04356,158.74742 c -22.87388,-1.01905 -44.06821,-11.55675 -57.08289,-28.3813 -2.78152,-3.59576 -6.80655,-10.6487 -8.35375,-14.63801 -13.97561,-36.034806 11.30016,-74.522196 54.24841,-82.603966 27.83185,-5.23724 57.04473,4.20545 74.29391,24.01456 7.61753,8.74803 12.73483,19.83169 14.29285,30.95714 0.50666,3.61797 0.42067,11.40075 -0.16946,15.337096 -4.6246,30.84766 -34.4396,54.28688 -70.49801,55.4224 -1.38828,0.0437 -4.41726,-0.005 -6.73106,-0.10792 z"
     id="path1475" />
  <path
     style="fill:#808080;stroke-width:0.312889"
     d="m 240.00043,286.03565 c -7.0549,-1.31435 -13.15898,-6.40323 -14.98255,-12.49073 -0.67343,-2.24804 -0.67679,-8.87015 -0.007,-13.81885 2.27984,-16.84497 9.84764,-32.24521 22.22711,-45.23152 3.52242,-3.69509 11.16618,-10.14852 15.3115,-12.92711 15.47148,-10.37047 33.46044,-16.55654 52.50225,-18.05458 2.9432,-0.23154 15.22648,-0.29874 40.89118,-0.22369 36.13176,0.10565 36.75475,0.11712 41.36463,0.76196 16.80291,2.35046 31.616,7.73366 44.91756,16.32342 21.65423,13.98367 35.93871,35.17853 39.24509,58.23062 0.85471,5.95905 1.00568,11.39108 0.38616,13.89428 -1.72472,6.96881 -7.55106,12.11847 -15.35582,13.57239 -3.27527,0.61014 -223.21951,0.575 -226.50009,-0.0362 z"
     id="path1477" />
</svg>
