<?xml version="1.0" encoding="UTF-8" standalone="no"?>
<svg
   viewBox="0 0 512 512"
   version="1.1"
   id="svg650"
   sodipodi:docname="arrow-down-a-z.svg"
   inkscape:version="1.2.1 (9c6d41e410, 2022-07-14)"
   xmlns:inkscape="http://www.inkscape.org/namespaces/inkscape"
   xmlns:sodipodi="http://sodipodi.sourceforge.net/DTD/sodipodi-0.dtd"
   xmlns="http://www.w3.org/2000/svg"
   xmlns:svg="http://www.w3.org/2000/svg">
  <defs
     id="defs654" />
  <sodipodi:namedview
     id="namedview652"
     pagecolor="#ffffff"
     bordercolor="#000000"
     borderopacity="0.25"
     inkscape:showpageshadow="2"
     inkscape:pageopacity="0.0"
     inkscape:pagecheckerboard="0"
     inkscape:deskcolor="#d1d1d1"
     showgrid="false"
     inkscape:zoom="1.7128906"
     inkscape:cx="255.7081"
     inkscape:cy="256.2919"
     inkscape:window-width="1920"
     inkscape:window-height="1057"
     inkscape:window-x="-8"
     inkscape:window-y="-8"
     inkscape:window-maximized="1"
     inkscape:current-layer="svg650" />
  <!--! Font Awesome Pro 6.1.1 by @fontawesome - https://fontawesome.com License - https://fontawesome.com/license (Commercial License) Copyright 2022 Fonticons, Inc. -->
  <path
     d="M239.6 373.1c11.94-13.05 11.06-33.31-1.969-45.27c-13.55-12.42-33.76-10.52-45.22 1.973L160 366.1V64.03c0-17.7-14.33-32.03-32-32.03S96 46.33 96 64.03v302l-32.4-35.39C51.64 317.7 31.39 316.7 18.38 328.7c-13.03 11.95-13.9 32.22-1.969 45.27l87.1 96.09c12.12 13.26 35.06 13.26 47.19 0L239.6 373.1zM448 416h-50.75l73.38-73.38c9.156-9.156 11.89-22.91 6.938-34.88S460.9 288 447.1 288H319.1C302.3 288 288 302.3 288 320s14.33 32 32 32h50.75l-73.38 73.38c-9.156 9.156-11.89 22.91-6.938 34.88S307.1 480 319.1 480h127.1C465.7 480 480 465.7 480 448S465.7 416 448 416zM492.6 209.3l-79.99-160.1c-10.84-21.81-46.4-21.81-57.24 0L275.4 209.3c-7.906 15.91-1.5 35.24 14.31 43.19c15.87 7.922 35.04 1.477 42.93-14.4l7.154-14.39h88.43l7.154 14.39c6.174 12.43 23.97 23.87 42.93 14.4C494.1 244.6 500.5 225.2 492.6 209.3zM367.8 167.4L384 134.7l16.22 32.63H367.8z"
     id="path648" />
  <path
     style="fill:#808080;stroke-width:0.583808"
     d="m 119.26839,478.70299 c -4.15576,-1.1195 -6.93987,-2.33321 -10.30383,-4.49187 -1.93744,-1.24324 -17.427875,-17.90677 -48.410579,-52.0767 -25.058816,-27.63665 -46.308556,-51.41783 -47.221644,-52.84708 -2.33464,-3.65439 -3.9684514,-8.31962 -4.7075645,-13.44213 -1.5652654,-10.84825 3.9700735,-22.99302 13.4144685,-29.43193 5.325483,-3.63075 9.775425,-5.14319 16.133384,-5.48337 6.295953,-0.33687 10.363726,0.46841 15.829656,3.13374 5.353464,2.61048 7.752829,4.91493 26.356551,25.31388 L 96.036488,366.56807 96.33245,212.18255 C 96.577509,84.349838 96.764579,57.396472 97.420132,55.468045 103.16194,38.577469 118.8701,29.406473 135.38922,33.300307 c 10.42416,2.457148 18.84373,10.283513 22.65333,21.057284 l 1.62906,4.607061 0.2919,153.705778 0.29191,153.70578 15.47092,-17.37628 c 17.75517,-19.94185 20.09142,-22.35121 23.75465,-24.49801 11.90567,-6.97718 25.37212,-6.1199 36.3073,2.31134 3.97642,3.0659 8.36982,9.29062 10.10846,14.32202 1.11739,3.23358 1.33853,5.03632 1.30147,10.6093 -0.0505,7.59965 -1.10992,11.44816 -4.60024,16.7117 -2.06022,3.1069 -90.4879,99.85237 -94.76753,103.68167 -6.92985,6.20065 -19.33239,9.0514 -28.56206,6.56504 z"
     id="path827" />
  <path
     style="fill:#808080;stroke-width:0.583808"
     d="m 296.15114,254.51769 c -10.80226,-2.90946 -19.40909,-11.55611 -22.67067,-22.77556 -1.28598,-4.4236 -1.27947,-11.88579 0.0142,-16.33601 0.5389,-1.85373 19.72025,-40.84517 42.62523,-86.64763 40.21088,-80.408604 41.76066,-83.392444 44.99096,-86.622751 11.93752,-11.93752 33.84587,-11.860747 45.86735,0.160732 3.22895,3.228951 4.77965,6.21567 45.0544,86.776929 29.29485,58.59824 41.99467,84.57352 42.66553,87.26493 3.47833,13.95457 -3.69763,29.36428 -16.64189,35.73693 -5.33558,2.62679 -8.25776,3.30847 -14.26048,3.32666 -8.34672,0.0253 -15.92993,-3.26809 -22.22157,-9.65079 -2.95646,-2.99924 -4.408,-5.26918 -8.3373,-13.03795 l -4.75761,-9.40645 h -44.53867 -44.53867 l -3.94106,8.17089 c -5.99236,12.4238 -10.13828,17.21728 -18.16104,20.99768 -6.30274,2.96991 -14.6957,3.78044 -21.14875,2.04239 z m 104.24415,-87.18485 c -1.01922,-2.68203 -15.99537,-32.765 -16.31133,-32.765 -0.43817,0 -16.28464,31.88713 -16.28464,32.76884 0,0.27953 7.37787,0.50825 16.39528,0.50825 9.15803,0 16.30939,-0.22605 16.20069,-0.51209 z"
     id="path829" />
  <path
     style="fill:#808080;stroke-width:0.583808"
     d="m 311.81928,478.67589 c -8.2785,-2.22637 -16.45944,-9.00929 -20.08942,-16.65641 -4.50372,-9.48776 -4.50268,-18.33799 0.003,-27.95791 1.98944,-4.24731 3.20393,-5.53381 40.51808,-42.91999 21.15693,-21.19778 38.46716,-38.73393 38.46716,-38.96921 0,-0.23528 -12.01916,-0.43235 -26.70924,-0.43792 -29.86586,-0.0113 -31.77572,-0.19842 -38.59217,-3.78037 -9.7924,-5.14576 -16.26684,-15.12199 -16.86308,-25.98373 -0.51271,-9.34009 2.76016,-17.90486 9.36649,-24.51119 4.47796,-4.47796 11.11515,-7.89758 17.04429,-8.78156 2.7104,-0.4041 26.69674,-0.55044 71.22463,-0.43454 63.2491,0.16464 67.32396,0.23669 70.34892,1.24388 11.99764,3.99475 20.01298,12.84972 22.53346,24.8939 1.39545,6.66818 0.528,12.69815 -2.85325,19.83405 -1.65202,3.48649 -5.09427,7.10974 -40.51704,42.6475 -21.2914,21.36052 -38.71163,39.02802 -38.71163,39.26112 0,0.2331 12.54458,0.42693 27.87685,0.43074 22.58509,0.006 28.48554,0.1689 31.08339,0.86021 10.71559,2.85149 19.31856,11.32226 22.53964,22.19329 1.57055,5.30054 1.37497,12.92818 -0.46556,18.15764 -3.73039,10.59903 -11.73925,17.79958 -23.00143,20.67996 -4.36797,1.11714 -6.63335,1.15208 -72.28363,1.11486 -57.25821,-0.0325 -68.2624,-0.16967 -70.91972,-0.88432 z"
     id="path831" />
</svg>
