<?xml version="1.0" encoding="UTF-8" standalone="no"?>
<svg
   viewBox="0 0 512 512"
   version="1.1"
   id="svg9145"
   sodipodi:docname="download.svg"
   inkscape:version="1.2.1 (9c6d41e410, 2022-07-14)"
   xmlns:inkscape="http://www.inkscape.org/namespaces/inkscape"
   xmlns:sodipodi="http://sodipodi.sourceforge.net/DTD/sodipodi-0.dtd"
   xmlns="http://www.w3.org/2000/svg"
   xmlns:svg="http://www.w3.org/2000/svg">
  <defs
     id="defs9149" />
  <sodipodi:namedview
     id="namedview9147"
     pagecolor="#ffffff"
     bordercolor="#000000"
     borderopacity="0.25"
     inkscape:showpageshadow="2"
     inkscape:pageopacity="0.0"
     inkscape:pagecheckerboard="0"
     inkscape:deskcolor="#d1d1d1"
     showgrid="false"
     inkscape:zoom="1.7128906"
     inkscape:cx="255.7081"
     inkscape:cy="256.2919"
     inkscape:window-width="1920"
     inkscape:window-height="1057"
     inkscape:window-x="-8"
     inkscape:window-y="-8"
     inkscape:window-maximized="1"
     inkscape:current-layer="svg9145" />
  <!--! Font Awesome Pro 6.1.1 by @fontawesome - https://fontawesome.com License - https://fontawesome.com/license (Commercial License) Copyright 2022 Fonticons, Inc. -->
  <path
     d="M480 352h-133.5l-45.25 45.25C289.2 409.3 273.1 416 256 416s-33.16-6.656-45.25-18.75L165.5 352H32c-17.67 0-32 14.33-32 32v96c0 17.67 14.33 32 32 32h448c17.67 0 32-14.33 32-32v-96C512 366.3 497.7 352 480 352zM432 456c-13.2 0-24-10.8-24-24c0-13.2 10.8-24 24-24s24 10.8 24 24C456 445.2 445.2 456 432 456zM233.4 374.6C239.6 380.9 247.8 384 256 384s16.38-3.125 22.62-9.375l128-128c12.49-12.5 12.49-32.75 0-45.25c-12.5-12.5-32.76-12.5-45.25 0L288 274.8V32c0-17.67-14.33-32-32-32C238.3 0 224 14.33 224 32v242.8L150.6 201.4c-12.49-12.5-32.75-12.5-45.25 0c-12.49 12.5-12.49 32.75 0 45.25L233.4 374.6z"
     id="path9143" />
  <path
     style="fill:#808080;stroke:#000000;stroke-width:0.583808"
     d="m 248.22986,382.7114 c -2.34701,-0.6366 -5.63093,-1.87109 -7.29761,-2.7433 -2.34727,-1.22838 -18.32854,-16.85823 -70.90077,-69.34167 -60.41757,-60.31553 -68.09272,-68.1788 -69.89449,-71.60756 -2.602498,-4.95257 -3.810782,-9.66273 -3.799968,-14.81314 0.01867,-8.89391 3.068111,-16.22284 9.397198,-22.58494 9.76946,-9.82042 24.12101,-12.04139 36.86502,-5.70504 3.19797,1.59004 8.36901,6.52904 42.18203,40.28916 21.1955,21.16233 38.73164,38.47696 38.96922,38.47696 0.23757,0 0.43651,-55.23558 0.44209,-122.74572 0.0112,-135.688163 -0.23486,-126.987688 3.80906,-134.683294 3.63118,-6.910141 9.51831,-12.1071102 17.0459,-15.0475742 3.43408,-1.34143336 4.81888,-1.54436838 10.66056,-1.5622509 5.5271,-0.0169194 7.38453,0.21482761 10.50855,1.311128 7.61526,2.6723993 14.06088,8.2179641 17.78171,15.2986971 4.04392,7.695606 3.79786,-1.004869 3.80906,134.683294 0.006,67.51014 0.20718,122.75285 0.448,122.76158 0.24082,0.009 17.25154,-16.92277 37.80159,-37.62552 24.81528,-24.99967 38.44212,-38.30849 40.57469,-39.62773 5.15977,-3.19193 9.59181,-4.60033 15.47092,-4.91633 9.76573,-0.5249 17.41936,2.38461 24.31308,9.24256 9.76766,9.71697 12.00701,24.19127 5.70379,36.86698 -1.61275,3.24322 -9.18607,11.02581 -69.04073,70.94841 -36.9761,37.01808 -68.49589,68.12339 -70.04398,69.12291 -7.11108,4.59126 -16.84401,6.16172 -24.80492,4.00239 z"
     id="path9268" />
  <path
     style="fill:#808080;stroke:#000000;stroke-width:0.583808"
     d="M 24.392476,510.80148 C 14.000969,508.28223 5.1362293,499.93318 1.6932454,489.42271 l -1.40134118,-4.2779 V 432.01824 378.89168 L 1.5853091,374.78077 C 4.8956173,364.25943 14.03816,355.71169 24.659912,353.20736 c 3.112446,-0.73384 13.832018,-0.86299 72.236999,-0.87034 l 68.582209,-0.009 24.82714,24.72334 c 13.84105,13.78318 26.50634,25.89486 28.6219,27.37083 11.16664,7.79065 23.21335,11.54095 37.07184,11.54095 13.85849,0 25.9052,-3.7503 37.07184,-11.54095 2.11556,-1.47597 14.78085,-13.58765 28.6219,-27.37083 l 24.82714,-24.72334 68.58221,0.009 c 58.40498,0.007 69.12455,0.1365 72.237,0.87034 10.6711,2.51596 19.74891,11.0032 23.0746,21.57341 l 1.29341,4.11091 v 53.12656 53.12657 l -1.40134,4.2779 c -3.48908,10.65116 -12.3402,18.90098 -22.96667,21.40642 -5.33565,1.25801 -457.75593,1.23098 -462.947614,-0.0277 z M 442.1126,453.74815 c 5.20199,-2.49844 9.1846,-6.41632 11.68473,-11.4948 1.75632,-3.56758 1.86516,-4.16484 1.86516,-10.23511 0,-6.08694 -0.10532,-6.66037 -1.88857,-10.28265 -7.45845,-15.15027 -26.7767,-18.55241 -38.7002,-6.8155 -7.28738,7.17333 -9.18815,18.40876 -4.67514,27.63465 5.84495,11.94875 19.84966,16.89169 31.71402,11.19341 z"
     id="path9270" />
</svg>
