<?xml version="1.0" encoding="UTF-8" standalone="no"?>
<svg
   viewBox="0 0 448 512"
   version="1.1"
   id="svg4"
   sodipodi:docname="floppy-disk.svg"
   inkscape:version="1.2.1 (9c6d41e410, 2022-07-14)"
   xmlns:inkscape="http://www.inkscape.org/namespaces/inkscape"
   xmlns:sodipodi="http://sodipodi.sourceforge.net/DTD/sodipodi-0.dtd"
   xmlns="http://www.w3.org/2000/svg"
   xmlns:svg="http://www.w3.org/2000/svg">
  <defs
     id="defs8" />
  <sodipodi:namedview
     id="namedview6"
     pagecolor="#ffffff"
     bordercolor="#000000"
     borderopacity="0.25"
     inkscape:showpageshadow="2"
     inkscape:pageopacity="0.0"
     inkscape:pagecheckerboard="0"
     inkscape:deskcolor="#d1d1d1"
     showgrid="false"
     inkscape:zoom="1.7128906"
     inkscape:cx="224.18244"
     inkscape:cy="350.86888"
     inkscape:window-width="1350"
     inkscape:window-height="843"
     inkscape:window-x="502"
     inkscape:window-y="66"
     inkscape:window-maximized="0"
     inkscape:current-layer="svg4" />
  <!--! Font Awesome Pro 6.1.1 by @fontawesome - https://fontawesome.com License - https://fontawesome.com/license (Commercial License) Copyright 2022 Fonticons, Inc. -->
  <path
     d="M433.1 129.1l-83.9-83.9C342.3 38.32 327.1 32 316.1 32H64C28.65 32 0 60.65 0 96v320c0 35.35 28.65 64 64 64h320c35.35 0 64-28.65 64-64V163.9C448 152.9 441.7 137.7 433.1 129.1zM224 416c-35.34 0-64-28.66-64-64s28.66-64 64-64s64 28.66 64 64S259.3 416 224 416zM320 208C320 216.8 312.8 224 304 224h-224C71.16 224 64 216.8 64 208v-96C64 103.2 71.16 96 80 96h224C312.8 96 320 103.2 320 112V208z"
     id="path2" />
  <path
     style="fill:#808080;stroke:#000000;stroke-width:0.583808"
     d="M 55.753707,479.22375 C 26.607735,475.52155 3.6956636,451.78896 0.59865732,422.09351 c -0.78961096,-7.57114 -0.78961096,-324.615872 0,-332.187009 C 1.7197617,79.15686 4.9793133,69.861881 10.712001,61.067163 14.147114,55.797234 21.219331,48.199458 25.629213,45.041407 l 2.56878,-1.839582 H 187.62667 347.05535 l 42.54391,42.472065 c 23.39915,23.35963 44.10841,44.41449 46.02057,46.78857 5.4934,6.8204 10.01724,16.77838 11.54768,25.41899 0.41669,2.3526 0.61282,45.06284 0.61122,133.10833 -0.002,113.4661 -0.1136,130.33022 -0.8939,135.14163 -3.3431,20.614 -16.69036,38.43335 -35.47167,47.3567 -6.02996,2.86495 -13.68691,5.07082 -20.18733,5.81571 -6.40837,0.73434 -329.66797,0.65718 -335.472123,-0.0801 z M 233.67023,415.3904 c 24.65793,-3.71678 45.15424,-21.81058 52.05618,-45.95434 9.03103,-31.59154 -8.1388,-65.82501 -38.78876,-77.3376 -8.68278,-3.26139 -13.09089,-3.99572 -23.63092,-3.93659 -8.11627,0.0455 -10.08931,0.25213 -15.04903,1.57589 -11.61423,3.09986 -22.07183,9.2515 -30.30948,17.82944 -12.03029,12.52725 -17.91025,27.00984 -17.96434,44.24687 -0.0572,18.21907 6.83334,34.23993 20.13517,46.81554 14.48274,13.69206 33.79971,19.73801 53.55118,16.76079 z M 311.6507,222.16891 c 3.33165,-1.84555 5.92513,-4.69401 7.55485,-8.29757 0.93135,-2.0594 1.02724,-6.18543 1.18462,-50.97369 0.10342,-29.43252 -0.0525,-50.16995 -0.39366,-52.3614 -1.07067,-6.87711 -4.53403,-11.421774 -10.36752,-13.604358 -3.19706,-1.196174 -3.44972,-1.198404 -118.61484,-1.047065 l -115.410956,0.151662 -3.210947,1.811135 c -1.76602,0.996125 -4.062501,2.918256 -5.103291,4.271396 -3.794358,4.93309 -3.695881,3.28113 -3.520534,59.05908 l 0.158603,50.45246 1.641056,3.34187 c 1.947719,3.96635 5.486159,7.18536 9.141524,8.31627 2.23608,0.69181 20.516564,0.8016 118.239085,0.71008 l 115.59407,-0.10824 z"
     id="path9001" />
</svg>
