<?xml version="1.0" encoding="UTF-8" standalone="no"?>
<svg
   viewBox="0 0 448 512"
   version="1.1"
   id="svg1735"
   sodipodi:docname="trash-can.svg"
   inkscape:version="1.2.1 (9c6d41e410, 2022-07-14)"
   xmlns:inkscape="http://www.inkscape.org/namespaces/inkscape"
   xmlns:sodipodi="http://sodipodi.sourceforge.net/DTD/sodipodi-0.dtd"
   xmlns="http://www.w3.org/2000/svg"
   xmlns:svg="http://www.w3.org/2000/svg">
  <defs
     id="defs1739" />
  <sodipodi:namedview
     id="namedview1737"
     pagecolor="#ffffff"
     bordercolor="#000000"
     borderopacity="0.25"
     inkscape:showpageshadow="2"
     inkscape:pageopacity="0.0"
     inkscape:pagecheckerboard="0"
     inkscape:deskcolor="#d1d1d1"
     showgrid="false"
     inkscape:zoom="1.7128906"
     inkscape:cx="224.18244"
     inkscape:cy="256.2919"
     inkscape:window-width="1920"
     inkscape:window-height="1057"
     inkscape:window-x="-8"
     inkscape:window-y="-8"
     inkscape:window-maximized="1"
     inkscape:current-layer="svg1735" />
  <!--! Font Awesome Pro 6.1.1 by @fontawesome - https://fontawesome.com License - https://fontawesome.com/license (Commercial License) Copyright 2022 Fonticons, Inc. -->
  <path
     d="M135.2 17.69C140.6 6.848 151.7 0 163.8 0H284.2C296.3 0 307.4 6.848 312.8 17.69L320 32H416C433.7 32 448 46.33 448 64C448 81.67 433.7 96 416 96H32C14.33 96 0 81.67 0 64C0 46.33 14.33 32 32 32H128L135.2 17.69zM31.1 128H416V448C416 483.3 387.3 512 352 512H95.1C60.65 512 31.1 483.3 31.1 448V128zM111.1 208V432C111.1 440.8 119.2 448 127.1 448C136.8 448 143.1 440.8 143.1 432V208C143.1 199.2 136.8 192 127.1 192C119.2 192 111.1 199.2 111.1 208zM207.1 208V432C207.1 440.8 215.2 448 223.1 448C232.8 448 240 440.8 240 432V208C240 199.2 232.8 192 223.1 192C215.2 192 207.1 199.2 207.1 208zM304 208V432C304 440.8 311.2 448 320 448C328.8 448 336 440.8 336 432V208C336 199.2 328.8 192 320 192C311.2 192 304 199.2 304 208z"
     id="path1733" />
  <path
     style="fill:#808080;stroke-width:0.583808"
     d="M 85.131684,510.83882 C 62.156071,506.94747 42.822178,490.5001 34.794718,468.0171 31.337766,458.335 31.525656,468.51182 31.525656,290.95203 V 128.14595 h 192.079994 192.08 l -0.15298,164.77993 -0.15297,164.77994 -1.57589,5.70809 c -1.91611,6.94039 -5.78719,15.27532 -9.77088,21.03792 -3.54842,5.13297 -11.17006,12.67205 -16.31255,16.13585 -5.3727,3.61887 -13.76846,7.43752 -20.34295,9.25261 l -5.7081,1.5759 -136.02737,0.091 c -109.28502,0.0731 -136.908684,-0.0583 -140.510276,-0.66832 z m 48.051296,-63.65784 c 3.74427,-1.27581 6.60913,-3.88169 8.49941,-7.73109 l 1.64258,-3.34499 V 319.92702 c 0,-108.06369 -0.0693,-116.33076 -0.99178,-118.36693 -2.62145,-5.78605 -7.34107,-9.13159 -13.58974,-9.63317 -5.28065,-0.42388 -9.1094,0.99229 -12.88182,4.76472 -5.41941,5.41941 -4.93879,-6.64193 -4.93232,123.77724 l 0.006,115.05221 1.38403,2.91905 c 3.72231,7.85066 12.58251,11.5626 20.86393,8.74084 z m 96.40926,-0.0276 c 3.72127,-1.26797 7.56693,-4.82066 9.25001,-8.54533 l 1.39492,-3.087 V 319.92702 204.33295 l -1.64258,-3.34498 c -6.1231,-12.4692 -24.5062,-12.06661 -30.39524,0.66566 l -1.23926,2.67932 V 320.21893 436.1049 l 1.8091,3.21095 c 1.91308,3.39551 6.08706,7.04421 9.20856,8.0497 2.8275,0.91079 8.62993,0.80481 11.61449,-0.21213 z m 95.98842,0.14538 c 3.48346,-1.28431 6.85664,-4.18363 8.64967,-7.43457 l 1.75143,-3.17552 0.15168,-115.57211 c 0.17004,-129.55654 0.52762,-118.86794 -4.14627,-123.93852 -3.09304,-3.35555 -6.22415,-4.90096 -10.64936,-5.25617 -6.72967,-0.5402 -13.10167,3.04251 -16.08206,9.04224 l -1.38346,2.78499 v 116.17788 c 0,129.80075 -0.40647,117.83597 4.17588,122.91882 3.15864,3.50362 7.10994,5.22566 11.87885,5.17702 2.08712,-0.0213 4.63126,-0.34712 5.65364,-0.72406 z"
     id="path1858" />
  <path
     style="fill:#808080;stroke-width:0.583808"
     d="M 22.280226,93.963898 C 11.945044,90.443463 4.1515512,82.241859 1.4319407,72.023887 0.30694365,67.797108 0.35344773,59.660645 1.5251618,55.713716 3.9723107,47.470475 10.105893,39.81318 17.276683,36.049179 c 7.035304,-3.692882 5.967701,-3.629031 60.953648,-3.645522 l 49.915619,-0.01497 4.65904,-9.188642 c 4.03123,-7.950463 5.21126,-9.746596 8.75713,-13.3292675 2.77061,-2.7993673 5.32731,-4.7336656 7.89284,-5.9714149 7.82195,-3.77372176 4.40196,-3.60831926 74.41228,-3.59882888 70.64335,0.009576 67.46511,-0.15529256 75.1824,3.90003078 6.68728,3.5140608 9.99709,7.3733105 15.87714,18.5127905 l 5.09783,9.657575 51.4723,0.161171 51.4723,0.161171 4.08666,1.692437 c 8.06825,3.341365 13.68803,8.500076 17.25483,15.83918 4.52503,9.310756 4.49351,18.300746 -0.0969,27.645067 -4.08712,8.319784 -11.45477,14.436684 -20.10122,16.688801 -3.0495,0.794289 -25.39474,0.892258 -200.49064,0.878994 L 26.563284,95.422824 Z"
     id="path1860" />
</svg>
