<?xml version="1.0" encoding="UTF-8" standalone="no"?>
<svg
   viewBox="0 0 512 512"
   version="1.1"
   id="svg9010"
   sodipodi:docname="upload.svg"
   inkscape:version="1.2.1 (9c6d41e410, 2022-07-14)"
   xmlns:inkscape="http://www.inkscape.org/namespaces/inkscape"
   xmlns:sodipodi="http://sodipodi.sourceforge.net/DTD/sodipodi-0.dtd"
   xmlns="http://www.w3.org/2000/svg"
   xmlns:svg="http://www.w3.org/2000/svg">
  <defs
     id="defs9014" />
  <sodipodi:namedview
     id="namedview9012"
     pagecolor="#ffffff"
     bordercolor="#000000"
     borderopacity="0.25"
     inkscape:showpageshadow="2"
     inkscape:pageopacity="0.0"
     inkscape:pagecheckerboard="0"
     inkscape:deskcolor="#d1d1d1"
     showgrid="false"
     inkscape:zoom="1.7128906"
     inkscape:cx="256.2919"
     inkscape:cy="489.81528"
     inkscape:window-width="1350"
     inkscape:window-height="1041"
     inkscape:window-x="182"
     inkscape:window-y="0"
     inkscape:window-maximized="0"
     inkscape:current-layer="svg9010" />
  <!--! Font Awesome Pro 6.1.1 by @fontawesome - https://fontawesome.com License - https://fontawesome.com/license (Commercial License) Copyright 2022 Fonticons, Inc. -->
  <path
     d="M105.4 182.6c12.5 12.49 32.76 12.5 45.25 .001L224 109.3V352c0 17.67 14.33 32 32 32c17.67 0 32-14.33 32-32V109.3l73.38 73.38c12.49 12.49 32.75 12.49 45.25-.001c12.49-12.49 12.49-32.75 0-45.25l-128-128C272.4 3.125 264.2 0 256 0S239.6 3.125 233.4 9.375L105.4 137.4C92.88 149.9 92.88 170.1 105.4 182.6zM480 352h-160c0 35.35-28.65 64-64 64s-64-28.65-64-64H32c-17.67 0-32 14.33-32 32v96c0 17.67 14.33 32 32 32h448c17.67 0 32-14.33 32-32v-96C512 366.3 497.7 352 480 352zM432 456c-13.2 0-24-10.8-24-24c0-13.2 10.8-24 24-24s24 10.8 24 24C456 445.2 445.2 456 432 456z"
     id="path9008" />
  <path
     style="fill:#808080;stroke:#000000;stroke-width:0.583808"
     d="m 248.22986,382.71138 c -6.06805,-1.64587 -9.72729,-3.78994 -14.473,-8.48019 -4.69508,-4.64021 -7.88376,-10.45624 -8.94642,-16.31789 -0.43513,-2.40022 -0.628,-41.08405 -0.628,-125.95667 0,-67.3709 -0.19436,-122.49255 -0.43191,-122.49255 -0.23755,0 -17.64234,17.17624 -38.67731,38.16942 -23.51048,23.46376 -39.27554,38.75766 -40.91919,39.69625 -20.58401,11.7543 -46.268787,-1.889 -47.672708,-25.32291 -0.379523,-6.33491 0.49038,-10.47504 3.470761,-16.51838 2.351637,-4.76844 2.671187,-5.09933 68.988607,-71.438904 44.06376,-44.078488 67.71337,-67.3282897 69.83696,-68.6563398 6.0314,-3.7719129 9.42477,-4.72365681 16.93045,-4.74850819 7.69379,-0.0254742 11.93515,1.11516999 17.51425,4.71016599 4.50897,2.9054433 134.65841,133.093106 137.34595,137.386286 3.12911,4.99857 4.58217,9.55212 4.93685,15.47093 0.55103,9.19565 -2.53885,17.53183 -8.88257,23.96421 -9.84289,9.98045 -24.53759,12.36863 -37.22379,6.04961 -3.19186,-1.58988 -8.41381,-6.57711 -42.18423,-40.28816 -21.19779,-21.16052 -38.73393,-38.47367 -38.96921,-38.47367 -0.23529,0 -0.42779,55.12165 -0.42779,122.49255 0,84.87262 -0.19287,123.55645 -0.628,125.95667 -1.39223,7.67964 -7.29888,16.40742 -14.02494,20.72351 -7.34102,4.71073 -16.8566,6.26565 -24.93476,4.07457 z"
     id="path9133" />
  <path
     style="fill:#808080;stroke:#000000;stroke-width:0.583808"
     d="M 24.392476,510.80148 C 14.000969,508.28223 5.1362293,499.93318 1.6932454,489.42271 l -1.40134118,-4.2779 V 432.01824 378.89168 L 1.5853091,374.78077 C 4.8956173,364.25943 14.03816,355.71169 24.659912,353.20736 c 3.130294,-0.73805 15.405341,-0.86295 85.533928,-0.87034 l 81.87914,-0.009 v 3.43836 c 0,1.8911 0.39722,5.53234 0.88271,8.09165 4.90956,25.88112 25.28551,46.30225 51.08259,51.19588 6.11705,1.16038 17.73808,1.17334 23.78363,0.0265 25.9637,-4.92523 46.29717,-25.2587 51.2224,-51.2224 0.48549,-2.55929 0.88271,-6.20053 0.88271,-8.09163 v -3.43836 l 81.87914,0.009 c 70.12858,0.007 82.40364,0.13229 85.53393,0.87034 10.6711,2.51596 19.74891,11.0032 23.0746,21.57341 l 1.29341,4.11091 v 53.12656 53.12657 l -1.40134,4.2779 c -3.48908,10.65116 -12.3402,18.90098 -22.96667,21.40642 -5.33565,1.25801 -457.75593,1.23098 -462.947614,-0.0277 z M 442.1126,453.74815 c 5.20199,-2.49844 9.1846,-6.41632 11.68473,-11.4948 1.75632,-3.56758 1.86516,-4.16484 1.86516,-10.23511 0,-6.08694 -0.10532,-6.66037 -1.88857,-10.28265 -7.45845,-15.15027 -26.7767,-18.55241 -38.7002,-6.8155 -7.28738,7.17333 -9.18815,18.40876 -4.67514,27.63465 5.84495,11.94875 19.84966,16.89169 31.71402,11.19341 z"
     id="path9135" />
</svg>
