<?xml version="1.0" encoding="UTF-8" standalone="no"?>
<svg
   viewBox="0 0 448 512"
   version="1.1"
   id="svg1995"
   sodipodi:docname="xmark-large.svg"
   inkscape:version="1.2.1 (9c6d41e410, 2022-07-14)"
   xmlns:inkscape="http://www.inkscape.org/namespaces/inkscape"
   xmlns:sodipodi="http://sodipodi.sourceforge.net/DTD/sodipodi-0.dtd"
   xmlns="http://www.w3.org/2000/svg"
   xmlns:svg="http://www.w3.org/2000/svg">
  <defs
     id="defs1999" />
  <sodipodi:namedview
     id="namedview1997"
     pagecolor="#ffffff"
     bordercolor="#000000"
     borderopacity="0.25"
     inkscape:showpageshadow="2"
     inkscape:pageopacity="0.0"
     inkscape:pagecheckerboard="0"
     inkscape:deskcolor="#d1d1d1"
     showgrid="false"
     inkscape:zoom="1.7128906"
     inkscape:cx="224.18244"
     inkscape:cy="256.2919"
     inkscape:window-width="1920"
     inkscape:window-height="1057"
     inkscape:window-x="-8"
     inkscape:window-y="-8"
     inkscape:window-maximized="1"
     inkscape:current-layer="svg1995" />
  <!--! Font Awesome Pro 6.1.1 by @fontawesome - https://fontawesome.com License - https://fontawesome.com/license (Commercial License) Copyright 2022 Fonticons, Inc. -->
  <path
     d="M393.4 41.37C405.9 28.88 426.1 28.88 438.6 41.37C451.1 53.87 451.1 74.13 438.6 86.63L269.3 255.1L438.6 425.4C451.1 437.9 451.1 458.1 438.6 470.6C426.1 483.1 405.9 483.1 393.4 470.6L223.1 301.3L54.63 470.6C42.13 483.1 21.87 483.1 9.372 470.6C-3.124 458.1-3.124 437.9 9.372 425.4L178.7 255.1L9.372 86.63C-3.124 74.13-3.124 53.87 9.372 41.37C21.87 28.88 42.13 28.88 54.63 41.37L223.1 210.7L393.4 41.37z"
     id="path1993" />
  <path
     style="fill:#808080;stroke-width:0.583808"
     d="M 24.678839,478.79607 C 19.219999,477.40842 13.977805,474.40238 9.8573264,470.29696 3.6099474,464.0724 0.58139392,456.82499 0.58706428,448.11297 0.59160905,441.13035 1.8372593,436.81038 5.5646145,430.85063 6.6464314,429.12088 42.391513,392.72831 93.298082,341.52794 L 179.20593,255.12429 92.300657,168.42873 C -1.3236331,75.030369 3.6312997,80.287189 1.4318697,72.023616 0.30693548,67.797077 0.35347616,59.660548 1.5251618,55.713716 3.1741108,50.159218 5.8136643,45.730489 9.8573264,41.733738 19.939489,31.76854 33.659404,29.645289 46.704675,36.031357 51.018378,38.143049 47.538802,34.714219 158.7593,146.45182 l 64.41914,64.71864 27.79504,-27.64627 c 15.28728,-15.20544 50.78251,-50.51194 78.87829,-78.45888 66.67008,-66.31688 67.21804,-66.845498 71.56321,-69.038038 12.94522,-6.532045 27.45023,-4.074618 37.24686,6.310334 9.49919,10.06963 11.53975,23.140092 5.54593,35.523315 -2.86782,5.924899 6.09819,-3.240111 -101.51222,103.765379 -40.29737,40.07086 -73.36632,73.09859 -73.48655,73.39497 -0.12022,0.29637 21.032,21.85197 47.00494,47.90133 25.97295,26.04936 64.85695,65.09564 86.4089,86.76953 l 39.18536,39.40707 2.41249,5.02538 c 5.97244,12.44102 3.93361,25.47531 -5.55885,35.53781 -9.69007,10.272 -24.38465,12.78834 -37.15358,6.36231 -4.34404,-2.18616 -4.63774,-2.46973 -73.99173,-71.43814 -27.45359,-27.30097 -62.16115,-61.8126 -77.12792,-76.69252 l -27.2123,-27.05439 -66.48896,66.76456 c -36.56892,36.72051 -74.633074,74.99412 -84.587008,85.05247 -9.953934,10.05835 -19.706548,19.4461 -21.672476,20.86167 -5.373776,3.86939 -10.45679,5.60299 -17.150785,5.8494 -3.376652,0.1243 -6.740071,-0.0993 -8.598242,-0.57168 z"
     id="path2243" />
</svg>
